<svg id="color" enable-background="new 0 0 24 24" height="512" viewBox="0 0 24 24" width="512" xmlns="http://www.w3.org/2000/svg"><path d="m9.53 6.55v-1.11c0-.52-.41-.94-.91-.94h-6.24c-.5 0-.91.42-.91.94v12.56h8.06v-.55c.28.6.79 1.08 1.43 1.35.01.01.03.01.04.01v.13c0 1.14-.9 2.06-2.02 2.06h-6.96c-1.12 0-2.02-.92-2.02-2.06v-13.88c0-1.13.9-2.06 2.02-2.06h6.96c1.12 0 2.02.93 2.02 2.06v.14c-.01 0-.03 0-.04.01-.64.26-1.15.74-1.43 1.34z" fill="#607d8b"/><path d="m7.77 7.73c-1.05 1.1-1.02 2.84.07 3.89l.4.38-.4.38c-1.09 1.05-1.12 2.79-.07 3.89.43.44 1 .73 1.61.82.04.12.09.24.15.36v.55h-8.06v-12.56c0-.52.41-.94.91-.94h6.24c.5 0 .91.42.91.94v1.11c-.06.12-.11.24-.15.36-.61.09-1.18.38-1.61.82z" fill="#eceff1"/><path d="m24 5.06v13.88c0 1.13-.85 2.06-1.89 2.06h-7.22c-1.04 0-1.89-.93-1.89-2.06v-.14c.36-.13.69-.34.96-.62l.42-.43v1c0 .41.3.75.68.75h6.88c.38 0 .68-.34.68-.75v-13.75c0-.41-.3-.75-.68-.75h-.35c-.38 0-.68.34-.68.75s-.31.75-.69.75h-3.44c-.38 0-.69-.34-.69-.75s-.3-.75-.68-.75h-.35c-.38 0-.68.34-.68.75v1.25l-.42-.43c-.27-.28-.6-.49-.96-.62v-.14c0-1.13.85-2.06 1.89-2.06h7.22c1.04 0 1.89.93 1.89 2.06z" fill="#607d8b"/><path d="m22.62 5v13.75c0 .41-.3.75-.68.75h-6.88c-.38 0-.68-.34-.68-.75v-1l1.83-1.86c.51-.52.8-1.24.79-1.97-.01-.72-.31-1.41-.82-1.92.51-.5.81-1.2.82-1.92.01-.73-.28-1.45-.79-1.97l-1.83-1.86v-1.25c0-.41.3-.75.68-.75h.35c.38 0 .68.34.68.75s.31.75.69.75h3.44c.38 0 .69-.34.69-.75s.3-.75.68-.75h.35c.38 0 .68.34.68.75z" fill="#eceff1"/><path d="m12 17c-.096 0-.192-.018-.284-.056-.282-.116-.466-.39-.466-.694v-2.29l-.98.942c-.299.286-.773.277-1.061-.021-.287-.299-.277-.773.021-1.061l1.895-1.82-1.895-1.82c-.298-.287-.308-.762-.021-1.061.288-.298.763-.308 1.061-.021l.98.942v-2.29c0-.305.184-.579.466-.694.283-.115.605-.049.819.168l2.25 2.289c.141.143.218.336.215.537s-.086.391-.23.53l-1.479 1.42 1.479 1.42c.145.139.228.33.23.53s-.075.394-.215.537l-2.25 2.289c-.144.146-.338.224-.535.224zm.75-3.439v.857l.433-.441zm0-3.978v.857l.433-.416z" fill="#2196f3"/></svg>